<?xml version="1.0" encoding="UTF-8" standalone="no"?>
<!-- Filename: 7a9f659c0f273cd9851ef7983f8aebe963a892c2b0d0b6e860c9833fb23baee1.svg -->
<!-- Created with https://svgstud.io -->
<svg
  version="1.1"
  xmlns="http://www.w3.org/2000/svg"
  xmlns:xlink="http://www.w3.org/1999/xlink"
  xmlns:svg="http://www.w3.org/2000/svg"
  xmlns:rdf="http://www.w3.org/1999/02/22-rdf-syntax-ns#"
  xmlns:cc="http://creativecommons.org/ns#"
  xmlns:dc="http://purl.org/dc/elements/1.1/"
  viewBox="0 0 768 768"
  width="768"
  height="768"
  role="img"
  aria-labelledby="titleID descID"
>
  <title id="titleID">A kid having fun. No background.</title>
  <desc id="descID">AI-generated SVG illustration: A kid having fun. No background., created on https://svgstud.io</desc>

  <rect width="100%" height="100%" fill="white" />

  <metadata id="copyright">
    Created by https://svgstud.io and licensed under CC-BY-SA 4.0 license. Please attribute https://svgstud.io
  </metadata>
  <metadata id="prompt">
    A kid having fun. No background.
  </metadata>
  <metadata id="version">
    7
  </metadata>
  <metadata>
    <rdf:RDF
      xmlns:rdf="http://www.w3.org/1999/02/22-rdf-syntax-ns#"
      xmlns:cc="http://creativecommons.org/ns#"
      xmlns:dc="http://purl.org/dc/elements/1.1/"
    >
      <cc:Work rdf:about="">
        <cc:license rdf:resource="http://creativecommons.org/licenses/by-sa/4.0/" />
        <dc:creator>
          <cc:Agent>
            <dc:title>https://svgstud.io</dc:title>
          </cc:Agent>
        </dc:creator>
      </cc:Work>
      <cc:License rdf:about="http://creativecommons.org/licenses/by-sa/4.0/">
        <cc:permits rdf:resource="http://creativecommons.org/ns#Reproduction" />
        <cc:permits rdf:resource="http://creativecommons.org/ns#Distribution" />
        <cc:requires rdf:resource="http://creativecommons.org/ns#Notice" />
        <cc:requires rdf:resource="http://creativecommons.org/ns#Attribution" />
        <cc:permits rdf:resource="http://creativecommons.org/ns#DerivativeWorks" />
        <cc:requires rdf:resource="http://creativecommons.org/ns#ShareAlike" />
      </cc:License>
    </rdf:RDF>
  </metadata>
  <metadata id="uid">7a9f659c0f273cd9851ef7983f8aebe963a892c2b0d0b6e860c9833fb23baee1</metadata>

  <path stroke="none" fill="black" fill-rule="evenodd" d="M328.10,724.85C322.27,724.77 316.15,724.54 314.50,724.33C312.85,724.13 308.57,723.51 305.00,722.94C301.43,722.38 296.25,721.20 293.50,720.31C290.75,719.43 286.58,717.40 284.24,715.80C281.90,714.20 279.06,711.08 277.93,708.86C276.80,706.64 275.22,701.45 274.44,697.32C273.65,693.20 273.00,687.92 273.00,685.59C273.00,683.27 273.69,679.03 274.54,676.18C275.49,672.99 277.52,669.48 279.85,667.04C281.92,664.86 286.71,661.62 290.49,659.86C296.35,657.11 298.87,656.56 307.60,656.07C313.23,655.76 318.21,655.13 318.67,654.67C319.13,654.21 319.66,641.54 319.85,626.52C320.19,600.62 320.11,599.17 318.35,598.62C317.33,598.30 312.00,597.12 306.50,596.00C301.00,594.88 294.25,593.24 291.50,592.35C288.75,591.45 283.35,589.18 279.50,587.30C275.65,585.42 271.06,582.49 269.30,580.79C267.14,578.70 265.76,576.13 265.05,572.81C264.48,570.12 263.52,561.38 262.92,553.39C262.00,540.89 262.08,537.72 263.50,530.68C264.41,526.18 267.09,517.54 269.46,511.47C271.83,505.40 278.54,490.51 284.38,478.39C290.22,466.26 295.00,455.65 295.00,454.81C295.00,453.73 293.60,453.11 290.24,452.71C287.62,452.40 282.96,451.21 279.88,450.06C276.81,448.91 272.16,446.55 269.55,444.83C266.95,443.10 263.30,439.40 261.46,436.59C259.62,433.79 257.58,429.35 256.93,426.71C256.28,424.08 255.94,421.73 256.17,421.49C256.41,421.26 259.28,422.16 262.55,423.51C265.82,424.85 269.96,425.96 271.75,425.98C273.54,425.99 275.00,425.56 275.00,425.02C275.00,424.48 272.86,422.94 270.25,421.61C267.64,420.28 261.73,416.67 257.12,413.60C248.74,408.00 248.74,408.00 240.08,408.00C235.32,408.00 228.84,407.33 225.68,406.50C222.52,405.68 218.27,404.15 216.22,403.11C214.17,402.06 210.13,399.27 207.23,396.91C204.33,394.55 200.60,390.49 198.93,387.89C197.27,385.30 195.64,381.54 195.31,379.55C194.99,377.55 194.00,375.56 193.11,375.12C192.23,374.69 188.80,373.75 185.50,373.04C182.20,372.34 177.86,370.93 175.85,369.91C173.84,368.89 170.91,366.50 169.35,364.60C167.78,362.69 165.38,358.29 164.00,354.82C162.02,349.83 161.50,346.72 161.50,340.00C161.50,333.18 161.95,330.59 163.77,326.89C165.02,324.36 167.49,320.63 169.27,318.60C172.06,315.40 173.38,314.76 179.01,313.84C184.21,313.00 187.22,313.10 193.95,314.37C198.58,315.25 202.58,315.75 202.84,315.50C203.09,315.24 201.24,312.83 198.72,310.13C195.93,307.15 193.65,303.53 192.89,300.87C192.21,298.47 191.65,292.23 191.65,287.00C191.66,281.01 192.30,275.29 193.39,271.50C194.34,268.20 196.65,263.25 198.53,260.50C200.40,257.75 203.46,254.29 205.33,252.82C208.72,250.14 208.72,250.14 208.23,231.32C207.95,220.69 208.23,207.50 208.87,201.00C209.49,194.68 211.05,185.68 212.34,181.00C213.63,176.32 216.40,168.22 218.48,163.00C220.57,157.78 223.65,151.03 225.33,148.00C227.00,144.97 230.17,139.80 232.36,136.50C234.56,133.20 238.97,127.28 242.16,123.35C245.35,119.41 252.14,112.29 257.23,107.52C262.33,102.74 271.19,95.69 276.91,91.84C282.64,88.00 292.32,82.35 298.41,79.29C304.51,76.23 313.65,72.23 318.72,70.40C323.79,68.56 331.44,66.17 335.72,65.09C340.00,64.01 348.28,62.42 354.13,61.56C359.97,60.70 370.55,60.01 377.63,60.02C384.71,60.03 395.23,60.68 401.00,61.46C406.77,62.24 415.87,64.03 421.21,65.43C426.55,66.83 434.93,69.58 439.83,71.54C444.73,73.50 453.74,77.90 459.84,81.30C465.94,84.71 474.66,90.19 479.22,93.48C483.77,96.77 492.68,104.65 499.00,110.98C505.32,117.32 512.85,125.93 515.72,130.12C518.59,134.30 522.75,141.37 524.97,145.82C527.19,150.27 530.34,157.87 531.95,162.71C533.57,167.54 535.42,175.78 536.06,181.00C536.75,186.55 536.96,194.45 536.57,200.00C536.21,205.22 535.08,214.32 534.07,220.22C532.22,230.93 532.22,230.93 534.61,237.51C536.49,242.67 537.00,246.07 536.99,253.30C536.98,258.36 536.35,264.84 535.59,267.71C534.32,272.48 534.36,273.19 536.09,276.21C537.13,278.02 538.85,281.10 539.91,283.05C540.97,285.01 542.35,289.39 542.96,292.80C543.62,296.43 543.80,302.08 543.40,306.49C542.95,311.48 543.07,314.00 543.77,314.00C544.34,314.00 547.06,312.84 549.80,311.41C553.50,309.49 556.82,308.70 562.64,308.34C568.95,307.96 571.19,308.22 574.00,309.68C576.03,310.74 578.19,312.97 579.14,315.00C580.05,316.93 581.34,320.07 582.02,322.00C582.70,323.93 584.10,327.87 585.14,330.76C586.18,333.66 587.30,338.61 587.62,341.76C588.04,345.90 587.61,349.87 586.08,355.98C584.91,360.64 582.83,366.08 581.46,368.05C580.09,370.03 577.09,372.70 574.80,373.99C571.02,376.12 568.97,376.40 553.06,376.98C538.80,377.49 534.84,377.96 532.00,379.45C530.08,380.47 526.70,382.71 524.50,384.45C522.30,386.18 516.11,390.39 510.75,393.80C505.39,397.21 496.84,402.63 491.75,405.85C486.66,409.07 478.45,414.28 473.50,417.43C468.55,420.58 460.34,425.15 455.25,427.58C447.98,431.06 446.00,432.45 446.00,434.08C446.00,435.22 451.36,452.43 457.90,472.33C464.45,492.22 470.82,513.00 472.06,518.50C473.95,526.87 474.29,531.11 474.15,544.50C474.06,553.30 473.54,565.17 473.01,570.89C472.38,577.48 471.38,582.36 470.26,584.26C469.29,585.90 465.60,588.99 462.05,591.13C458.50,593.27 452.26,596.26 448.18,597.76C444.10,599.27 440.54,601.07 440.27,601.76C440.00,602.45 441.03,605.96 442.56,609.55C444.09,613.15 445.75,616.35 446.25,616.66C446.75,616.97 450.37,617.88 454.29,618.69C458.20,619.50 463.06,621.01 465.08,622.04C467.10,623.07 470.63,626.04 472.91,628.64C475.20,631.24 478.37,636.09 479.95,639.43C481.54,642.77 483.53,648.20 484.38,651.50C485.23,654.80 486.23,661.21 486.60,665.75C487.27,673.80 487.35,674.00 489.89,674.01C491.33,674.01 496.10,674.88 500.50,675.93C504.90,676.99 510.65,678.77 513.27,679.90C515.89,681.02 519.15,683.06 520.52,684.43C522.17,686.08 523.00,688.02 523.00,690.27C523.00,692.33 522.16,694.52 520.83,695.95C519.64,697.23 515.93,699.52 512.58,701.03C509.24,702.55 502.66,704.96 497.97,706.39C493.28,707.82 482.71,710.14 474.47,711.55C464.85,713.21 452.43,714.46 439.72,715.05C428.84,715.56 407.47,717.55 392.22,719.47C376.97,721.38 358.70,723.41 351.60,723.98C344.51,724.54 333.94,724.93 328.10,724.85zM319.00,716.55C324.77,716.35 334.20,715.21 339.95,714.00C345.70,712.79 353.11,710.83 356.41,709.65C361.66,707.77 362.60,707.03 363.83,703.79C364.60,701.75 364.96,698.97 364.61,697.60C363.99,695.11 363.99,695.11 358.36,697.05C355.26,698.12 349.01,699.68 344.47,700.53C339.75,701.42 330.52,702.10 322.86,702.12C315.51,702.14 306.23,701.67 302.24,701.08C298.24,700.49 291.75,698.88 287.81,697.50C283.87,696.13 280.50,695.00 280.33,695.00C280.15,695.00 280.00,696.37 280.00,698.05C280.00,699.73 280.67,702.40 281.50,704.00C282.32,705.59 284.49,708.04 286.32,709.43C288.14,710.82 291.63,712.66 294.07,713.52C296.51,714.38 300.75,715.50 303.50,715.99C306.25,716.49 313.23,716.74 319.00,716.55zM446.64,705.89C451.23,705.96 456.09,705.29 460.21,704.02C464.01,702.84 468.11,700.70 470.26,698.77C472.26,696.97 474.82,693.71 475.95,691.51C477.13,689.21 478.00,685.61 478.00,682.97C478.00,678.41 478.00,678.41 471.70,684.56C467.16,688.99 463.74,691.33 459.45,692.95C456.18,694.18 450.64,695.67 447.15,696.26C442.54,697.04 438.78,697.01 433.41,696.18C429.35,695.55 425.12,694.46 424.01,693.77C422.90,693.08 422.00,692.29 422.00,692.01C422.00,691.73 425.16,691.65 429.03,691.83C433.75,692.06 437.88,691.60 441.58,690.43C444.61,689.48 447.48,687.98 447.95,687.10C448.41,686.22 449.60,681.79 450.57,677.25C451.54,672.72 452.03,668.70 451.65,668.32C451.28,667.94 448.71,670.17 445.96,673.26C442.90,676.69 438.82,679.92 435.49,681.55C432.09,683.21 429.16,684.01 427.74,683.65C426.49,683.34 424.57,682.22 423.48,681.18C422.39,680.14 420.49,678.09 419.25,676.64C417.42,674.48 417.00,672.77 417.00,667.47C417.00,663.12 416.18,658.61 414.52,653.87C413.16,649.97 410.34,643.79 408.26,640.14C406.18,636.49 401.83,627.88 398.60,621.00C395.36,614.12 392.31,608.05 391.81,607.50C391.31,606.95 385.86,606.00 379.70,605.39C371.49,604.57 368.30,604.57 367.77,605.39C367.36,606.00 367.03,619.10 367.02,634.50C367.02,649.90 367.30,665.48 367.64,669.12C368.27,675.74 368.27,675.74 386.38,676.26C396.35,676.54 406.81,677.30 409.63,677.95C414.76,679.11 414.76,679.11 415.23,684.03C415.49,686.73 416.78,691.04 418.10,693.60C419.88,697.05 421.83,699.02 425.64,701.16C428.46,702.76 432.74,704.45 435.14,704.92C437.54,705.39 442.72,705.83 446.64,705.89zM312.38,694.89C320.26,695.00 320.26,695.00 319.78,687.43C319.43,682.01 318.73,679.11 317.30,677.18C316.20,675.71 314.10,673.83 312.62,673.00C310.12,671.61 309.60,671.68 305.22,674.10C302.62,675.52 299.49,678.18 298.25,680.00C297.01,681.81 295.51,685.09 294.93,687.28C294.30,689.62 294.22,691.62 294.75,692.15C295.24,692.64 297.64,693.43 300.07,693.91C302.51,694.39 308.05,694.83 312.38,694.89zM287.78,690.94C288.49,690.97 289.33,690.21 289.66,689.25C289.98,688.29 291.34,685.02 292.68,682.00C294.40,678.11 297.21,674.54 302.30,669.80C308.06,664.43 309.24,662.84 308.24,661.84C307.25,660.85 305.80,660.84 301.27,661.79C298.13,662.45 293.56,664.23 291.12,665.74C288.69,667.26 285.35,670.17 283.70,672.21C281.55,674.88 280.58,677.34 280.23,680.96C279.91,684.32 280.19,686.52 281.09,687.61C281.83,688.50 283.35,689.59 284.47,690.05C285.58,690.50 287.08,690.90 287.78,690.94zM337.88,676.23C342.62,673.74 347.15,671.11 347.94,670.38C348.73,669.65 349.11,668.78 348.78,668.45C348.45,668.12 344.88,666.99 340.84,665.94C336.80,664.89 331.57,664.03 329.22,664.02C326.86,664.01 323.30,664.68 321.29,665.52C319.29,666.36 317.07,667.53 316.35,668.13C315.40,668.91 315.32,669.73 316.05,671.10C316.61,672.14 319.81,674.74 323.16,676.87C329.26,680.74 329.26,680.74 337.88,676.23zM440.10,671.44C440.59,671.13 441.00,670.31 441.00,669.61C441.00,668.91 443.92,663.51 447.49,657.62C451.06,651.74 454.70,644.73 455.58,642.06C457.00,637.71 457.01,636.90 455.66,634.35C454.57,632.28 454.02,631.91 453.65,633.00C453.38,633.83 452.42,636.83 451.52,639.68C450.62,642.53 448.60,646.63 447.03,648.79C445.37,651.09 443.10,652.94 441.59,653.23C440.17,653.50 439.00,653.28 439.00,652.73C439.00,652.18 439.91,650.27 441.02,648.47C442.13,646.67 443.68,644.95 444.47,644.65C445.25,644.35 446.59,641.75 447.45,638.87C448.30,635.99 448.99,632.93 448.97,632.07C448.95,630.89 448.66,630.99 447.82,632.50C447.21,633.60 444.75,636.82 442.35,639.66C439.95,642.51 435.96,645.81 433.46,647.02C429.92,648.73 427.96,649.07 424.55,648.56C422.06,648.19 419.92,648.32 419.58,648.87C419.25,649.40 420.42,651.27 422.17,653.02C423.92,654.77 425.41,657.33 425.47,658.71C425.53,660.09 426.44,661.85 427.51,662.63C428.57,663.41 431.17,664.51 433.29,665.08C436.21,665.87 437.39,666.83 438.17,669.06C438.73,670.67 439.60,671.75 440.10,671.44zM478.70,672.00C479.02,672.00 479.05,669.17 478.77,665.71C478.48,662.16 477.35,657.70 476.18,655.46C475.03,653.28 474.07,651.95 474.05,652.50C474.02,653.05 474.69,656.88 475.54,661.00C476.39,665.12 477.32,669.29 477.61,670.25C477.90,671.21 478.39,672.00 478.70,672.00zM331.44,656.98C332.02,656.98 333.03,656.63 333.67,656.22C334.35,655.80 335.15,651.37 335.55,645.83C336.26,636.19 336.26,636.19 333.10,634.55C331.36,633.65 329.55,633.16 329.08,633.45C328.60,633.74 327.89,638.57 327.49,644.17C326.83,653.34 326.94,654.48 328.57,655.68C329.57,656.40 330.86,656.99 331.44,656.98zM423.29,643.00C424.30,643.00 427.34,642.05 430.03,640.89C432.80,639.70 435.21,637.93 435.56,636.82C435.90,635.73 435.91,634.57 435.57,634.23C435.23,633.89 433.37,634.19 431.45,634.88C429.52,635.58 425.48,636.40 422.47,636.72C418.93,637.08 417.00,637.74 417.00,638.58C417.00,639.30 418.00,640.59 419.22,641.44C420.44,642.30 422.27,643.00 423.29,643.00zM418.75,632.69C421.71,632.38 425.78,631.27 427.81,630.23C430.42,628.88 431.59,627.55 431.81,625.70C431.99,624.25 431.22,621.03 430.11,618.52C429.01,616.02 427.35,613.69 426.43,613.34C425.51,612.98 420.32,613.74 414.88,615.03C408.39,616.56 405.00,617.83 405.00,618.71C405.00,619.46 406.11,622.25 407.46,624.92C408.81,627.59 410.70,630.56 411.65,631.51C413.03,632.89 414.48,633.13 418.75,632.69zM342.00,629.96C349.24,629.96 352.51,629.50 355.75,628.03C360.00,626.10 360.00,626.10 360.00,618.49C360.00,614.31 359.64,611.10 359.20,611.38C358.76,611.65 357.91,611.56 357.31,611.18C356.71,610.81 355.99,608.77 355.71,606.65C355.42,604.53 354.81,602.41 354.35,601.95C353.88,601.49 348.62,599.96 342.66,598.56C336.70,597.15 330.78,596.00 329.50,596.00C327.33,596.00 327.13,596.51 326.53,603.25C326.18,607.24 326.25,614.31 326.69,618.97C327.42,626.62 327.74,627.57 330.00,628.71C331.49,629.46 336.32,629.97 342.00,629.96zM288.75,581.99C289.99,582.00 290.99,581.89 290.99,581.75C290.98,581.61 290.31,579.02 289.50,576.00C288.69,572.98 288.02,566.98 288.01,562.68C288.00,554.87 288.00,554.87 280.57,551.43C276.48,549.55 272.39,548.00 271.49,548.00C270.04,548.00 269.93,549.05 270.57,557.25C270.96,562.34 271.79,568.52 272.39,570.99C273.43,575.19 273.93,575.70 280.00,578.74C283.57,580.52 287.51,581.99 288.75,581.99zM383.00,565.48C392.07,565.29 402.20,564.62 405.50,563.99C408.80,563.36 415.55,561.74 420.50,560.38C425.45,559.03 433.69,556.32 438.81,554.36C443.93,552.40 449.27,549.81 450.67,548.61C453.22,546.41 453.22,546.41 451.08,532.46C449.90,524.78 447.57,511.75 445.89,503.50C444.21,495.25 440.19,477.70 436.95,464.50C433.70,451.30 430.57,438.81 429.98,436.75C429.18,433.92 428.40,433.00 426.79,433.00C425.62,433.00 423.83,432.26 422.83,431.35C421.12,429.79 421.00,429.82 421.00,431.69C421.00,432.79 420.21,434.37 419.25,435.20C418.29,436.02 411.88,437.66 405.00,438.82C398.12,439.99 388.80,441.25 384.27,441.61C377.20,442.19 375.96,442.05 375.42,440.66C375.08,439.76 375.51,434.86 376.39,429.77C377.26,424.67 378.88,417.37 379.98,413.54C381.08,409.71 382.77,405.83 383.74,404.92C384.71,404.00 390.77,402.11 397.21,400.70C403.66,399.29 410.18,397.54 411.71,396.79C414.40,395.49 414.49,395.21 414.14,388.97C413.95,385.41 413.49,380.70 413.12,378.50C412.53,374.95 412.11,374.47 409.41,374.20C406.76,373.94 405.34,374.95 398.48,381.96C394.14,386.40 388.65,390.96 386.28,392.11C383.58,393.42 379.10,394.39 374.24,394.72C368.84,395.09 364.53,394.75 360.00,393.61C355.84,392.57 352.73,391.11 351.36,389.56C350.18,388.23 348.42,384.98 347.44,382.32C346.46,379.67 345.23,376.94 344.71,376.25C344.13,375.50 341.39,375.00 337.82,375.00C331.89,375.00 331.89,375.00 330.03,379.25C329.01,381.59 325.16,393.40 321.49,405.50C317.82,417.60 312.20,434.25 309.02,442.50C305.83,450.75 300.20,464.02 296.50,472.00C292.80,479.98 286.95,492.80 283.51,500.50C280.06,508.20 275.61,518.87 273.62,524.21C271.63,529.54 270.00,535.25 270.00,536.88C270.00,538.88 270.84,540.52 272.57,541.88C273.99,542.99 279.30,545.51 284.39,547.48C289.47,549.45 298.33,552.42 304.06,554.08C309.80,555.73 321.02,558.39 329.00,559.99C336.98,561.58 347.10,563.36 351.50,563.94C355.90,564.52 361.07,565.18 363.00,565.41C364.93,565.63 373.93,565.66 383.00,565.48zM356.64,441.91C354.91,441.86 349.90,441.17 345.50,440.38C341.10,439.59 334.01,438.01 329.75,436.86C322.92,435.03 322.00,434.51 322.00,432.47C322.00,431.20 323.40,426.19 325.12,421.33C326.83,416.47 329.95,408.52 332.04,403.66C334.14,398.79 336.09,394.57 336.38,394.28C336.68,393.99 337.72,394.09 338.71,394.50C339.69,394.90 341.66,395.35 343.07,395.49C344.49,395.63 347.51,396.97 349.78,398.47C352.63,400.36 354.38,402.49 355.43,405.35C356.26,407.63 357.44,412.41 358.06,415.97C358.67,419.53 359.56,426.20 360.03,430.79C360.50,435.37 360.64,439.77 360.34,440.56C360.01,441.42 358.52,441.96 356.64,441.91zM300.40,426.74C301.93,426.55 302.63,424.87 304.04,418.00C304.99,413.32 306.90,406.56 308.26,402.96C309.63,399.37 311.96,394.04 313.44,391.12C314.92,388.19 315.91,385.58 315.63,385.30C315.36,385.03 312.16,383.72 308.52,382.40C304.88,381.08 301.06,380.00 300.02,380.00C298.98,380.00 296.57,381.91 294.65,384.25C292.74,386.59 289.91,390.98 288.37,394.00C286.42,397.84 285.50,401.28 285.33,405.41C285.20,408.65 284.63,411.77 284.08,412.32C283.39,413.01 282.85,412.76 282.39,411.58C282.02,410.62 282.31,407.28 283.03,404.17C283.75,401.05 284.67,398.05 285.07,397.50C285.48,396.95 286.05,394.95 286.35,393.06C286.65,391.16 288.72,386.96 290.95,383.72C293.19,380.48 294.82,377.52 294.58,377.13C294.34,376.74 289.85,374.48 284.60,372.10C277.72,368.98 274.34,367.95 272.50,368.41C271.10,368.76 268.20,370.86 266.05,373.06C263.91,375.27 260.79,379.21 259.12,381.81C257.45,384.42 255.41,389.42 254.59,392.93C253.58,397.25 253.41,399.91 254.07,401.12C254.60,402.11 257.16,404.40 259.76,406.21C262.37,408.02 272.15,413.43 281.50,418.24C290.85,423.04 299.35,426.87 300.40,426.74zM441.33,424.00C443.23,424.00 446.53,422.78 449.18,421.10C451.70,419.50 454.02,417.78 454.33,417.27C454.64,416.77 453.96,413.46 452.81,409.93C451.19,404.92 450.62,400.03 450.24,387.85C449.77,372.21 449.77,372.21 447.13,372.96C445.68,373.38 440.56,375.41 435.75,377.48C427.00,381.24 427.00,381.24 427.00,385.87C427.00,388.42 428.10,395.00 429.44,400.50C430.78,406.00 432.60,412.52 433.48,414.98C434.36,417.45 435.74,420.49 436.56,421.73C437.60,423.33 439.02,424.00 441.33,424.00zM473.84,407.42C475.79,406.61 478.88,404.80 480.70,403.42C482.51,402.03 484.00,400.58 484.00,400.18C484.00,399.79 482.87,394.52 481.49,388.48C480.10,382.44 478.69,373.33 478.33,368.23C477.73,359.44 477.59,358.99 475.60,359.53C474.44,359.84 469.68,361.98 465.00,364.30C456.50,368.50 456.50,368.50 456.19,373.31C456.02,375.96 456.38,380.52 456.99,383.43C457.59,386.35 459.67,392.06 461.61,396.12C463.55,400.18 466.30,404.72 467.71,406.20C470.20,408.82 470.40,408.86 473.84,407.42zM221.96,391.91C225.85,391.99 226.24,391.82 224.96,390.57C224.16,389.78 219.70,386.63 215.05,383.57C209.09,379.64 205.62,378.00 203.30,378.00C201.25,378.00 200.00,378.49 200.00,379.31C200.00,380.03 201.44,382.09 203.19,383.88C204.94,385.68 207.75,387.86 209.43,388.72C211.11,389.59 213.61,390.65 214.99,391.07C216.37,391.48 219.51,391.87 221.96,391.91zM374.28,390.99C376.91,390.99 380.59,390.36 382.47,389.58C384.36,388.79 386.56,386.81 387.43,385.13C388.30,383.46 389.00,381.14 389.00,379.96C389.00,378.06 388.58,377.88 385.25,378.36C383.19,378.66 377.53,379.19 372.68,379.55C366.14,380.02 363.71,380.58 363.28,381.71C362.96,382.55 363.11,384.41 363.61,385.85C364.12,387.28 365.65,389.02 367.02,389.71C368.38,390.41 371.65,390.98 374.28,390.99zM496.50,388.36C497.60,388.02 500.52,386.71 503.00,385.45C505.48,384.19 508.35,382.52 509.39,381.74C511.21,380.37 511.18,380.09 508.23,372.41C506.55,368.06 504.70,361.87 504.11,358.66C503.37,354.62 503.35,351.41 504.05,348.27C504.61,345.78 504.88,343.55 504.66,343.33C504.43,343.10 500.20,345.07 495.25,347.71C490.30,350.34 485.19,353.23 483.89,354.11C481.62,355.66 481.58,355.94 482.69,361.25C483.33,364.29 485.06,369.87 486.55,373.64C488.03,377.41 490.43,382.41 491.87,384.74C493.94,388.08 494.92,388.85 496.50,388.36zM227.77,383.00C228.48,383.00 229.30,382.21 229.58,381.25C229.87,380.29 231.00,377.67 232.09,375.44C233.18,373.20 236.08,369.08 238.53,366.28C240.98,363.48 245.01,359.91 247.49,358.35C249.97,356.78 251.85,355.06 251.67,354.51C251.49,353.97 247.48,351.54 242.77,349.10C234.72,344.95 233.99,344.76 231.05,345.98C229.33,346.69 226.15,348.56 223.99,350.12C221.83,351.69 218.71,355.34 217.05,358.23C215.40,361.12 213.76,365.42 213.41,367.78C212.89,371.19 213.15,372.51 214.63,374.17C215.66,375.31 218.74,377.77 221.49,379.63C224.23,381.48 227.06,383.00 227.77,383.00zM534.80,370.29C537.94,369.50 547.39,368.60 555.81,368.29C568.69,367.82 571.46,367.44 573.31,365.88C575.19,364.30 575.29,363.90 574.00,363.04C573.17,362.48 569.45,362.02 565.73,362.02C559.38,362.00 558.89,361.84 557.98,359.43C557.44,358.02 557.00,353.76 557.00,349.96C557.00,343.06 557.00,343.06 562.25,341.59C565.14,340.79 570.09,339.58 573.25,338.91C576.78,338.15 579.00,337.16 579.00,336.34C579.00,335.40 577.57,335.01 574.25,335.03C571.64,335.04 566.35,336.13 562.50,337.44C558.65,338.75 555.29,339.61 555.03,339.36C554.77,339.10 555.22,337.67 556.03,336.19C556.97,334.48 560.22,332.16 565.00,329.79C569.12,327.75 572.65,325.39 572.82,324.54C573.06,323.39 572.29,323.00 569.77,323.00C567.87,323.00 562.74,324.77 558.05,327.03C553.46,329.25 549.32,330.94 548.84,330.78C548.37,330.62 549.05,328.92 550.36,326.99C551.67,325.06 555.71,321.76 559.37,319.61C563.02,317.48 566.00,315.30 566.00,314.77C566.00,314.19 563.94,314.09 560.75,314.53C557.86,314.92 553.25,316.12 550.50,317.20C547.75,318.28 543.98,320.32 542.12,321.73C540.26,323.15 535.98,326.78 532.62,329.80C529.25,332.82 524.08,336.37 521.11,337.69C515.73,340.09 515.73,340.09 516.30,345.65C516.65,348.97 518.34,354.29 520.50,358.85C522.49,363.06 525.24,367.67 526.61,369.11C529.09,371.70 529.13,371.71 534.80,370.29zM204.32,369.91C204.76,369.96 206.00,369.53 207.07,368.96C208.13,368.40 209.00,367.38 209.01,366.71C209.02,366.05 210.07,363.25 211.36,360.50C212.65,357.75 215.80,353.18 218.35,350.35C220.91,347.52 223.00,344.47 223.00,343.57C223.00,342.67 221.90,339.77 220.56,337.13C219.22,334.48 216.56,330.95 214.65,329.27C212.74,327.59 207.42,324.74 202.84,322.95C196.73,320.57 192.36,319.57 186.50,319.23C179.52,318.83 178.18,319.04 176.00,320.81C174.04,322.41 173.82,322.96 175.00,323.35C175.82,323.62 180.73,324.52 185.90,325.35C192.65,326.43 195.88,327.44 197.36,328.92C198.67,330.23 199.07,331.32 198.46,331.93C197.85,332.53 194.05,331.98 188.14,330.44C182.99,329.10 177.08,328.00 175.01,328.00C172.76,328.00 170.70,328.65 169.90,329.61C168.76,330.99 168.87,331.48 170.67,332.93C171.83,333.87 175.98,335.21 179.89,335.91C183.80,336.61 187.91,337.93 189.01,338.84C190.58,340.14 191.16,342.22 191.66,348.33C192.31,356.15 192.31,356.15 181.65,355.44C171.49,354.76 171.00,354.82 171.00,356.69C171.00,357.77 172.01,359.57 173.25,360.70C174.49,361.83 176.53,363.28 177.78,363.93C179.04,364.58 185.34,366.17 191.78,367.46C198.23,368.76 203.87,369.86 204.32,369.91zM369.12,369.88C379.41,369.98 383.48,369.56 391.16,367.61C396.34,366.30 405.60,363.17 411.74,360.65C417.87,358.14 425.51,354.76 428.70,353.14C431.89,351.53 438.71,347.44 443.86,344.05C449.01,340.66 457.71,333.53 463.21,328.20C468.82,322.76 475.57,314.95 478.58,310.42C481.54,305.97 485.14,299.67 486.57,296.42C488.01,293.16 489.65,289.93 490.23,289.24C491.01,288.29 491.60,288.26 492.63,289.11C493.38,289.73 494.00,291.49 494.00,293.02C494.00,294.54 494.57,296.00 495.26,296.27C495.96,296.54 498.63,296.43 501.21,296.04C503.79,295.65 507.79,294.08 510.09,292.56C512.40,291.03 516.24,287.77 518.63,285.31C521.02,282.86 524.30,278.06 525.93,274.65C527.56,271.23 529.35,266.43 529.92,263.97C530.49,261.51 530.96,256.00 530.98,251.72C530.99,247.37 530.40,242.51 529.65,240.72C528.90,238.95 526.84,236.08 525.06,234.35C523.28,232.62 520.63,230.96 519.16,230.67C517.70,230.38 514.52,230.63 512.09,231.23C508.84,232.03 506.19,233.81 502.03,237.97C497.60,242.40 495.66,245.40 493.07,251.83C491.25,256.34 489.34,260.29 488.82,260.61C488.29,260.94 487.64,260.97 487.36,260.69C487.08,260.41 486.89,251.70 486.95,241.34C487.02,229.37 486.48,218.13 485.49,210.50C484.62,203.90 482.35,191.19 480.43,182.27C478.51,173.34 475.34,161.41 473.39,155.77C471.43,150.12 468.10,142.35 465.98,138.50C463.86,134.65 459.89,128.35 457.14,124.50C454.40,120.65 450.77,115.92 449.08,114.00C447.39,112.08 446.00,110.26 446.00,109.96C446.00,109.67 446.96,109.35 448.13,109.27C449.30,109.18 453.01,110.49 456.36,112.18C459.71,113.87 465.62,117.61 469.48,120.48C473.34,123.34 479.90,129.26 484.05,133.62C488.20,137.98 494.60,146.07 498.27,151.58C501.94,157.10 506.72,165.41 508.88,170.06C511.04,174.70 513.59,181.43 514.55,185.00C515.51,188.57 516.68,191.93 517.15,192.45C517.63,192.99 518.00,191.64 518.00,189.31C518.00,187.06 517.30,181.46 516.44,176.86C515.58,172.26 513.79,165.03 512.47,160.80C511.15,156.56 508.76,150.21 507.16,146.69C505.56,143.17 501.88,136.74 498.97,132.40C496.07,128.05 490.04,120.88 485.58,116.44C481.13,112.01 474.11,106.01 469.99,103.10C465.87,100.19 458.23,95.67 453.00,93.04C447.77,90.42 440.57,87.52 437.00,86.60C433.43,85.67 426.56,84.65 421.75,84.31C416.94,83.98 413.00,84.09 413.00,84.55C413.00,85.02 414.44,86.89 416.20,88.70C419.39,92.00 419.39,92.00 416.95,92.00C415.60,92.00 410.27,90.86 405.10,89.48C399.93,88.09 391.83,86.26 387.10,85.40C382.37,84.54 371.34,83.65 362.59,83.42C353.83,83.19 346.50,82.83 346.29,82.62C346.07,82.41 347.61,80.81 349.70,79.07C351.79,77.33 357.21,74.13 361.75,71.96C366.29,69.79 370.00,67.73 370.00,67.37C370.00,67.02 365.84,66.97 360.75,67.26C355.65,67.56 348.58,68.73 345.00,69.87C341.43,71.00 334.41,74.35 329.41,77.31C324.42,80.26 315.81,85.88 310.30,89.79C304.78,93.70 291.63,104.91 281.08,114.69C267.96,126.84 259.64,135.47 254.80,141.90C250.90,147.09 245.08,155.86 241.86,161.41C238.64,166.95 236.00,170.97 236.00,170.32C236.00,169.68 237.52,165.55 239.38,161.13C241.25,156.72 244.79,150.22 247.26,146.69C249.73,143.16 257.32,133.57 264.12,125.39C270.93,117.21 278.88,107.85 281.78,104.59C284.98,101.01 286.71,98.31 286.15,97.75C285.60,97.20 283.51,97.71 280.87,99.06C278.47,100.28 274.49,102.65 272.03,104.34C269.57,106.02 264.00,110.80 259.65,114.95C255.30,119.10 248.95,126.10 245.54,130.50C242.13,134.90 237.74,141.20 235.79,144.50C233.83,147.80 231.11,152.75 229.75,155.50C228.39,158.25 226.05,163.61 224.55,167.40C223.04,171.20 220.76,178.40 219.46,183.40C218.17,188.41 216.60,196.40 215.97,201.17C215.35,205.94 214.98,217.69 215.17,227.27C215.41,240.17 215.86,245.13 216.87,246.35C217.63,247.26 218.79,248.00 219.45,248.00C220.33,248.00 220.55,245.05 220.29,236.75C219.92,225.50 219.92,225.50 223.31,235.50C225.17,241.00 227.98,248.07 229.54,251.22C231.11,254.37 232.17,257.17 231.90,257.44C231.62,257.71 229.17,256.79 226.45,255.39C222.76,253.50 220.51,252.98 217.61,253.35C215.47,253.62 211.89,255.17 209.67,256.78C207.44,258.39 204.26,262.11 202.61,265.04C200.05,269.58 199.54,271.68 199.18,279.21C198.92,284.61 199.25,289.88 200.03,292.77C200.74,295.37 202.36,299.59 203.63,302.15C204.89,304.71 207.15,307.76 208.63,308.92C210.11,310.09 212.40,311.31 213.71,311.64C215.02,311.97 216.30,312.03 216.56,311.77C216.82,311.51 215.56,308.19 213.77,304.40C210.71,297.95 210.50,296.81 210.53,287.00C210.55,277.57 210.83,275.97 213.25,271.34C215.31,267.39 216.75,265.91 219.33,265.06C221.54,264.33 223.56,264.26 225.17,264.87C226.52,265.39 229.13,267.52 230.96,269.61C232.80,271.70 235.32,275.68 236.58,278.45C237.84,281.23 239.17,285.19 239.54,287.25C240.16,290.67 240.03,291.00 237.98,291.00C235.96,291.00 235.80,291.36 236.33,294.66C236.66,296.67 238.07,299.50 239.46,300.96C240.86,302.42 242.00,304.15 242.00,304.80C242.00,305.49 240.59,306.00 238.68,306.00C236.31,306.00 234.15,304.97 231.15,302.40C228.84,300.42 226.28,297.52 225.47,295.95C224.66,294.38 224.00,290.93 224.00,288.27C224.00,285.44 224.67,282.49 225.62,281.14C226.66,279.65 227.90,279.00 229.12,279.32C230.15,279.59 231.00,279.44 231.00,278.97C231.00,278.51 229.65,277.18 228.01,276.01C226.37,274.84 223.82,273.79 222.35,273.69C220.26,273.54 219.22,274.26 217.59,277.00C215.99,279.67 215.51,282.15 215.53,287.50C215.55,292.42 216.17,295.85 217.64,299.06C218.78,301.57 222.44,306.79 225.77,310.65C229.10,314.52 233.15,318.24 234.78,318.91C236.41,319.58 239.49,319.99 241.62,319.82C245.07,319.54 245.72,319.03 247.51,315.33C249.51,311.15 249.51,311.15 254.00,319.83C257.51,326.61 260.45,330.46 267.49,337.50C272.94,342.94 279.27,348.10 283.50,350.54C287.35,352.77 293.29,355.82 296.71,357.33C300.12,358.84 306.53,360.99 310.94,362.10C315.35,363.22 327.40,365.40 337.73,366.95C349.85,368.76 360.97,369.80 369.12,369.88zM370.50,355.91C365.00,355.89 358.03,355.21 355.00,354.40C351.98,353.59 347.08,351.48 344.12,349.71C341.17,347.95 335.77,343.16 332.12,339.08C328.48,335.01 323.36,329.65 320.75,327.17C318.14,324.70 316.00,322.30 316.00,321.84C316.00,321.38 316.79,321.01 317.75,321.01C318.71,321.02 322.36,321.92 325.84,323.01C329.33,324.11 336.49,325.51 341.76,326.13C348.88,326.97 354.19,326.97 362.58,326.12C368.76,325.49 378.06,323.90 383.23,322.59C388.41,321.28 395.81,318.61 399.69,316.65C403.57,314.70 409.71,310.83 413.34,308.05C416.96,305.27 420.58,303.00 421.38,303.00C422.18,303.00 423.55,303.27 424.42,303.61C425.29,303.94 426.00,304.76 426.00,305.43C426.00,306.11 424.60,310.89 422.89,316.08C421.19,321.26 418.41,328.11 416.73,331.29C415.04,334.49 411.15,339.41 408.02,342.29C404.91,345.16 399.44,348.94 395.86,350.71C392.28,352.47 387.36,354.37 384.92,354.93C382.49,355.49 376.00,355.93 370.50,355.91zM566.40,353.47C569.92,353.10 574.31,352.48 576.15,352.10C578.58,351.61 579.50,350.88 579.50,349.46C579.50,347.71 578.68,347.47 571.76,347.21C567.51,347.05 563.12,347.40 562.01,347.99C560.81,348.64 560.00,350.09 560.00,351.61C560.00,354.15 560.03,354.16 566.40,353.47zM184.00,349.63C186.72,349.53 187.57,349.04 187.79,347.44C187.96,346.31 187.26,344.64 186.24,343.72C185.20,342.77 181.07,341.55 176.72,340.91C172.51,340.28 168.37,340.03 167.53,340.35C166.69,340.67 166.00,341.77 166.00,342.78C166.00,343.79 166.63,345.48 167.41,346.54C168.39,347.88 170.57,348.65 174.66,349.11C177.87,349.46 182.07,349.69 184.00,349.63zM369.00,349.93C378.59,349.95 381.62,349.56 387.23,347.58C390.93,346.28 395.38,344.37 397.13,343.35C398.87,342.33 400.67,340.71 401.14,339.75C401.61,338.79 402.45,337.21 403.00,336.25C403.55,335.29 404.49,333.38 405.09,332.00C405.77,330.43 405.85,328.57 405.29,327.00C404.57,324.97 403.85,324.56 401.45,324.82C399.83,325.00 393.96,326.49 388.42,328.12C380.56,330.44 375.39,331.24 364.92,331.79C352.31,332.46 351.51,332.62 351.70,334.50C351.82,335.60 352.21,338.48 352.59,340.89C353.27,345.28 353.27,345.28 350.39,344.56C348.80,344.16 347.80,344.13 348.16,344.50C348.53,344.86 350.78,346.23 353.16,347.53C357.01,349.64 358.80,349.91 369.00,349.93zM233.32,341.98C234.52,341.98 236.11,341.58 236.86,341.11C237.78,340.53 238.00,339.28 237.55,337.23C237.19,335.57 235.62,332.22 234.07,329.78C232.40,327.13 228.74,323.65 225.02,321.17C221.37,318.73 217.60,317.00 215.95,317.00C214.39,317.00 212.80,317.52 212.40,318.16C211.97,318.86 214.10,321.45 217.81,324.73C221.18,327.70 225.56,332.80 227.54,336.07C230.18,340.41 231.73,342.00 233.32,341.98zM503.60,336.00C503.92,336.00 505.42,335.28 506.92,334.39C508.42,333.50 511.26,330.20 513.23,327.04C515.20,323.88 517.50,319.31 518.32,316.87C519.15,314.43 519.91,310.20 520.00,307.47C520.10,304.74 520.14,301.85 520.09,301.05C520.03,300.13 519.65,299.95 519.05,300.55C518.53,301.07 516.47,305.55 514.48,310.50C512.48,315.45 509.09,322.71 506.93,326.62C504.77,330.54 503.00,334.25 503.00,334.87C503.00,335.49 503.27,336.00 503.60,336.00zM365.00,305.45C364.18,305.60 361.65,305.43 359.38,305.06C357.11,304.70 354.08,303.63 352.65,302.69C351.21,301.75 349.75,299.83 349.40,298.44C349.05,297.05 348.97,295.69 349.23,295.44C349.49,295.18 351.68,295.86 354.10,296.96C356.52,298.06 359.45,298.97 360.60,298.98C361.76,298.99 364.13,298.50 365.87,297.89C367.62,297.29 369.46,296.00 369.98,295.04C370.57,293.94 370.55,291.97 369.94,289.76C369.25,287.25 368.10,285.87 365.98,284.99C363.85,284.11 363.00,283.08 363.00,281.38C363.00,279.97 363.59,279.00 364.44,279.00C365.24,279.00 366.47,279.84 367.19,280.86C367.91,281.88 370.38,283.67 372.68,284.84C374.99,286.01 377.57,287.98 378.43,289.21C379.30,290.44 380.00,292.50 380.00,293.79C380.00,295.08 379.48,297.10 378.85,298.27C378.22,299.45 376.76,301.21 375.60,302.18C374.45,303.14 371.93,304.21 370.00,304.55C368.07,304.90 365.82,305.30 365.00,305.45zM272.90,300.56C272.35,300.90 270.39,299.57 268.53,297.60C266.47,295.42 263.91,290.71 261.94,285.48C260.16,280.78 258.32,276.70 257.85,276.41C257.37,276.11 256.73,276.69 256.41,277.69C256.09,278.68 255.48,280.40 255.05,281.50C254.44,283.06 253.70,281.69 251.64,275.20C250.19,270.63 249.01,265.01 249.03,262.70C249.05,258.50 249.05,258.50 251.78,261.76C253.27,263.55 255.23,265.01 256.13,265.01C257.02,265.00 258.28,264.37 258.93,263.59C259.57,262.81 260.36,260.56 260.68,258.59C261.03,256.45 261.83,255.00 262.66,255.00C263.44,255.00 265.64,253.43 267.56,251.51C269.48,249.59 272.75,247.15 274.83,246.09C276.90,245.03 281.05,243.72 284.04,243.18C287.52,242.54 291.63,242.53 295.49,243.13C298.79,243.65 303.75,245.16 306.50,246.49C309.25,247.82 313.91,251.29 316.85,254.20C319.79,257.12 323.30,261.67 324.65,264.33C326.01,266.98 327.35,271.26 327.65,273.83C328.02,277.04 327.69,279.43 326.60,281.50C325.73,283.15 325.01,285.11 325.01,285.86C325.00,286.61 324.03,288.96 322.84,291.08C321.65,293.20 319.24,295.61 317.48,296.44C315.72,297.28 311.19,298.49 307.39,299.13C303.60,299.78 298.46,300.00 295.97,299.63C293.47,299.25 289.98,298.06 288.21,296.98C286.43,295.90 284.13,293.61 283.08,291.90C282.04,290.18 280.64,285.87 279.97,282.33C279.20,278.27 279.01,272.94 279.44,267.94C280.01,261.52 279.87,260.00 278.76,260.00C278.00,260.00 276.19,261.24 274.74,262.75C273.29,264.26 271.35,267.30 270.42,269.50C269.43,271.85 268.73,276.19 268.72,280.00C268.71,284.63 269.45,288.43 271.30,293.22C272.89,297.35 273.51,300.19 272.90,300.56zM309.45,296.00C309.70,296.00 311.03,295.49 312.40,294.86C313.78,294.24 315.63,292.19 316.52,290.32C317.41,288.45 317.98,286.15 317.80,285.21C317.56,283.99 316.26,285.09 313.23,289.09C310.90,292.17 309.00,294.98 309.00,295.34C309.00,295.70 309.20,296.00 309.45,296.00zM292.83,283.44C293.56,283.20 294.56,283.00 295.04,283.00C295.53,283.00 296.81,282.05 297.89,280.88C298.98,279.72 300.13,277.13 300.46,275.13C300.78,273.14 300.60,269.97 300.05,268.09C299.50,266.21 298.06,263.63 296.85,262.34C295.52,260.92 293.50,260.00 291.73,260.00C289.73,260.00 287.72,261.08 285.40,263.40C282.54,266.26 282.00,267.51 282.00,271.32C282.00,274.77 282.64,276.60 284.67,279.02C286.14,280.76 288.27,282.57 289.42,283.03C290.56,283.50 292.10,283.68 292.83,283.44zM497.47,283.00C494.92,283.00 494.79,282.80 495.47,279.75C495.86,277.96 496.53,273.25 496.96,269.27C497.55,263.73 498.52,260.71 501.12,256.36C502.98,253.23 506.12,248.95 508.10,246.84C510.50,244.27 512.56,243.00 514.32,243.00C516.26,243.00 517.38,243.83 518.58,246.16C519.74,248.39 520.10,251.09 519.82,255.41C519.60,258.76 518.54,263.28 517.46,265.45C516.38,267.62 514.99,269.55 514.38,269.74C513.76,269.93 512.52,268.26 511.63,266.04C510.74,263.82 509.62,262.00 509.13,262.00C508.64,262.00 507.71,262.65 507.05,263.44C506.13,264.54 506.13,265.38 507.04,267.08C507.94,268.75 507.95,270.22 507.10,273.06C506.48,275.12 504.68,278.21 503.09,279.91C501.22,281.90 499.23,283.00 497.47,283.00zM436.00,280.94C434.07,280.93 430.78,280.30 428.68,279.55C426.58,278.80 423.99,277.39 422.91,276.42C421.83,275.44 419.64,271.91 418.04,268.57C416.44,265.23 414.83,260.12 414.46,257.21C413.88,252.56 413.61,252.08 412.24,253.21C411.38,253.92 409.86,256.34 408.87,258.58C407.87,260.82 406.76,265.21 406.39,268.33C406.02,271.45 405.39,274.00 404.98,274.00C404.58,274.00 403.63,272.54 402.87,270.75C402.09,268.89 401.51,264.07 401.52,259.50C401.53,252.36 401.93,250.66 405.24,243.71C407.57,238.80 410.99,233.76 414.47,230.12C417.51,226.93 422.37,223.16 425.31,221.73C428.23,220.30 432.77,218.58 435.39,217.92C438.18,217.22 442.97,216.96 446.94,217.29C450.68,217.61 455.48,218.59 457.62,219.48C459.75,220.37 463.23,222.29 465.34,223.74C467.45,225.20 470.50,228.32 472.13,230.69C473.75,233.05 475.72,236.79 476.50,239.01C477.28,241.22 477.67,243.70 477.35,244.52C477.04,245.33 475.77,246.00 474.54,246.00C472.46,246.00 472.25,246.56 471.73,253.36C471.36,258.34 470.37,262.30 468.70,265.61C467.33,268.30 465.36,271.27 464.32,272.21C463.28,273.15 460.71,274.64 458.60,275.52C456.50,276.40 451.34,277.98 447.14,279.04C442.94,280.10 437.93,280.96 436.00,280.94zM447.47,276.57C448.59,276.27 450.03,276.02 450.67,276.01C451.32,276.01 453.25,274.82 454.97,273.37C456.68,271.93 458.91,269.12 459.92,267.12C460.93,265.13 462.04,261.70 462.39,259.50C462.74,257.30 462.59,254.84 462.06,254.03C461.54,253.22 460.86,252.80 460.57,253.10C460.27,253.40 458.56,256.54 456.76,260.07C454.58,264.37 452.12,267.49 449.35,269.50C447.07,271.15 444.98,273.26 444.71,274.19C444.44,275.12 444.49,276.16 444.83,276.50C445.17,276.84 446.36,276.87 447.47,276.57zM430.20,263.96C431.14,263.98 433.02,263.49 434.39,262.87C435.75,262.25 437.39,260.48 438.02,258.94C438.66,257.40 439.80,255.91 440.55,255.62C441.30,255.33 442.83,253.29 443.95,251.09C445.08,248.88 446.00,245.53 446.00,243.65C446.00,241.24 445.13,239.28 443.10,237.11C440.67,234.51 439.45,234.00 435.63,234.00C431.94,234.00 430.39,234.60 427.48,237.16C425.50,238.89 423.01,242.02 421.94,244.12C420.85,246.25 420.00,249.94 420.00,252.53C420.00,255.06 420.49,258.04 421.08,259.15C421.67,260.26 423.58,261.78 425.33,262.54C427.07,263.30 429.27,263.94 430.20,263.96zM252.02,254.00C251.49,254.00 250.35,252.93 249.49,251.63C248.64,250.32 247.50,246.61 246.97,243.38C246.44,240.14 246.01,234.04 246.01,229.80C246.00,225.57 246.67,217.01 247.48,210.79C248.30,204.57 250.28,195.57 251.90,190.81C253.51,186.04 256.67,178.60 258.92,174.28C261.16,169.96 264.36,164.86 266.01,162.96C269.01,159.50 269.01,159.50 267.06,164.50C265.98,167.25 263.73,172.82 262.04,176.88C260.35,180.95 257.76,188.60 256.28,193.88C253.72,202.98 253.56,204.81 253.37,227.50C253.26,240.70 253.13,252.06 253.08,252.75C253.04,253.44 252.56,254.00 252.02,254.00zM315.38,225.93C314.89,226.36 309.55,224.98 303.50,222.88C297.45,220.77 289.02,218.56 284.76,217.97C279.43,217.23 275.31,217.21 271.55,217.91C268.54,218.46 264.21,219.87 261.92,221.04C259.40,222.33 257.40,222.80 256.84,222.24C256.29,221.69 256.29,220.37 256.85,218.90C257.36,217.56 259.64,214.11 261.91,211.23C264.19,208.35 267.83,204.82 269.99,203.38C273.23,201.25 275.08,200.78 280.28,200.81C283.93,200.83 288.99,201.68 292.23,202.82C295.31,203.90 299.85,206.18 302.31,207.87C304.77,209.56 308.64,213.06 310.91,215.64C313.19,218.22 315.32,221.42 315.65,222.74C315.98,224.06 315.86,225.50 315.38,225.93zM402.25,217.22C396.35,222.03 394.88,222.84 394.37,221.51C394.02,220.61 394.50,217.06 395.43,213.61C396.36,210.17 398.44,205.06 400.04,202.25C401.64,199.45 405.10,195.33 407.73,193.12C410.35,190.90 413.57,188.24 414.88,187.22C417.02,185.56 417.13,185.11 415.97,182.95C415.26,181.62 413.18,174.68 411.34,167.52C409.50,160.37 408.01,153.61 408.03,152.50C408.06,150.69 408.28,150.75 410.44,153.20C411.75,154.68 414.28,159.63 416.07,164.20C418.31,169.91 419.37,174.37 419.48,178.50C419.61,183.85 419.84,184.46 421.56,184.15C422.63,183.96 427.32,183.73 432.00,183.65C439.80,183.51 440.95,183.75 446.00,186.60C449.61,188.64 452.27,191.05 453.73,193.60C454.96,195.75 455.97,197.76 455.98,198.09C455.99,198.41 450.94,198.65 444.75,198.62C435.21,198.58 432.59,198.93 427.50,200.94C424.20,202.24 418.80,205.10 415.50,207.30C412.20,209.49 406.24,213.96 402.25,217.22zM366.69,204.95C365.49,204.92 361.98,204.09 358.91,203.10C355.83,202.12 351.31,199.93 348.85,198.24C346.40,196.55 342.78,193.39 340.82,191.22C338.86,189.05 335.38,184.13 333.10,180.28C330.81,176.43 328.54,171.87 328.04,170.14C327.55,168.41 327.45,167.01 327.82,167.02C328.19,167.03 330.30,169.57 332.50,172.66C334.70,175.76 339.12,180.92 342.33,184.14C345.54,187.36 348.63,190.00 349.20,190.00C349.78,190.00 349.97,189.03 349.63,187.75C349.29,186.51 347.87,180.39 346.46,174.15C345.05,167.91 344.03,160.71 344.20,158.15C344.50,153.50 344.50,153.50 354.00,171.45C359.23,181.32 364.93,192.55 366.67,196.42C368.42,200.28 369.63,203.79 369.36,204.22C369.10,204.65 367.90,204.98 366.69,204.95zM475.72,201.33C475.52,201.95 473.16,199.63 470.48,196.18C467.66,192.55 463.27,188.44 460.05,186.42C457.00,184.50 451.48,182.01 447.80,180.88C441.10,178.83 441.10,178.83 440.48,174.17C440.14,171.60 439.41,167.03 438.85,164.00C438.30,160.97 436.93,155.35 435.82,151.50C434.71,147.65 432.45,141.21 430.79,137.20C429.13,133.18 427.99,129.68 428.25,129.41C428.52,129.15 430.93,130.67 433.62,132.80C436.31,134.92 442.04,140.45 446.35,145.08C450.66,149.71 456.62,157.15 459.59,161.61C462.57,166.07 466.79,173.55 468.98,178.22C471.17,182.89 473.67,189.75 474.53,193.47C475.39,197.18 475.93,200.72 475.72,201.33zM395.99,199.00C394.68,199.00 392.27,196.68 389.00,192.25C386.25,188.54 382.04,181.68 379.63,177.00C377.22,172.32 374.07,165.50 372.63,161.83C371.18,158.16 370.00,154.45 370.00,153.58C370.00,152.71 370.36,152.00 370.81,152.00C371.25,152.00 376.02,158.09 381.40,165.54C386.78,172.99 392.72,182.02 394.59,185.61C396.54,189.34 398.00,193.62 398.00,195.57C398.00,198.34 397.61,199.00 395.99,199.00zM319.53,189.81C319.30,190.03 318.42,188.55 317.57,186.52C316.73,184.49 315.49,180.96 314.84,178.67C314.18,176.37 313.61,168.56 313.57,161.30C313.52,152.57 313.89,147.71 314.65,146.95C315.53,146.07 315.97,147.70 316.45,153.65C316.80,157.97 317.73,167.78 318.51,175.45C319.29,183.12 319.75,189.58 319.53,189.81zM332.25,111.70C318.44,112.22 316.00,112.10 316.00,110.86C316.00,110.07 318.27,106.73 321.04,103.46C323.85,100.12 328.06,96.49 330.59,95.20C334.19,93.37 337.53,92.76 347.12,92.19C353.73,91.79 359.59,91.75 360.14,92.09C360.75,92.46 359.93,95.84 358.03,100.77C355.32,107.80 354.51,108.98 351.71,109.96C349.94,110.58 341.19,111.36 332.25,111.70z" />

</svg>
